<?xml version="1.0" encoding="UTF-8"?>
<svg id="Capa_1" xmlns="http://www.w3.org/2000/svg" version="1.1" viewBox="0 0 48 48">
  <!-- Generator: Adobe Illustrator 30.3.0, SVG Export Plug-In . SVG Version: 2.1.3 Build 182)  -->
  <defs>
    <style>
      .st0 {
        fill: #c8ff01;
      }

      .st1 {
        fill: #999;
      }
    </style>
  </defs>
  <circle class="st1" cx="24" cy="24" r="22.8"/>
  <g>
    <path class="st0" d="M3,30.5v-.7s1.4-2.7,1.4-2.7c.4-.8,1.3-1.4,2.3-.9l2.5,1.3c.7.3,1,1,.9,1.7s-.6,1.2-1.3,1.4c1.9,4.2,5.3,7.4,9.6,9s12.6,1,17.3-3.3,4.3-5.2,5.1-8.5,1.1-1.5,2-1.3,1.4,1.1,1.2,2.1c-1,3.9-3.2,7.4-6.1,10.1-6,5.4-14.7,6.8-22,3.3-4.6-2.1-8.2-5.9-10.2-10.6-.5.3-1,.4-1.6,0s-.7-.6-.9-1.1Z"/>
    <path class="st0" d="M45,17.5v.7s-1.4,2.7-1.4,2.7c-.2.5-.6.8-1,1-.6.2-1,0-1.5-.2l-2.3-1.3c-.6-.3-1-1.1-.8-1.8s.6-1.1,1.3-1.3c-1.7-3.8-4.7-6.8-8.4-8.6-6.1-2.9-13.4-1.8-18.4,2.8-2.5,2.3-4.3,5.3-5.1,8.6s-1.2,1.5-2.1,1.2-1.4-1.1-1.1-2.1c1-3.9,3.2-7.4,6.1-10.1,5.9-5.4,14.5-6.8,21.8-3.5s8.4,6,10.4,10.7c.5-.3,1-.3,1.6,0s.7.6.9,1.1Z"/>
    <path class="st0" d="M31.8,26.8c1.3-3.8-.2-7.8-3.5-9.9s-7.7-1.5-10.4,1.3-3.1,7.2-.9,10.4c2.2,3.2,6.3,4.5,10,3.1s1.8,0,2.2.9-.1,1.8-1,2.1c-5.1,2-10.8.2-13.9-4.3s-2.6-10.6,1.2-14.5,9.8-4.7,14.5-1.9c4.6,2.8,6.7,8.5,4.9,13.7s-1.1,1.4-2,1.1-1.4-1.2-1.1-2.1Z"/>
    <path class="st0" d="M21.1,25.3c-.7-.7-.9-1.7-.3-2.4s1.7-.8,2.4-.1l.5.4,1.6-1.8c.7-.7,1.7-.8,2.4-.2s.7,1.7,0,2.4l-2.8,2.9c-.7.7-1.7.6-2.4,0l-1.5-1.4Z"/>
  </g>
</svg>